<svg width="403" height="403" xmlns="http://www.w3.org/2000/svg" xmlns:xlink="http://www.w3.org/1999/xlink" xml:space="preserve" overflow="hidden"><defs><clipPath id="clip0"><rect x="176" y="291" width="403" height="403"/></clipPath><clipPath id="clip1"><rect x="212" y="326" width="331" height="331"/></clipPath><clipPath id="clip2"><rect x="212" y="326" width="331" height="331"/></clipPath><clipPath id="clip3"><rect x="212" y="326" width="331" height="331"/></clipPath></defs><g clip-path="url(#clip0)" transform="translate(-176 -291)"><path d="M182.5 362.501C182.5 326.602 211.602 297.5 247.501 297.5L507.499 297.5C543.398 297.5 572.5 326.602 572.5 362.501L572.5 622.499C572.5 658.398 543.398 687.5 507.499 687.5L247.501 687.5C211.602 687.5 182.5 658.398 182.5 622.499Z" stroke="#FFFFFF" stroke-width="12.6042" stroke-miterlimit="8" fill="#A6A6A6" fill-rule="evenodd"/><g clip-path="url(#clip1)"><g clip-path="url(#clip2)"><g clip-path="url(#clip3)"><path d="M376.952 361.375C304.85 361.375 246.399 419.825 246.399 491.928 246.399 564.03 304.85 622.481 376.952 622.481 449.054 622.481 507.505 564.03 507.505 491.928 507.505 491.923 507.505 491.918 507.505 491.914 507.53 419.844 449.125 361.4 377.055 361.375 377.021 361.375 376.986 361.375 376.952 361.375ZM440.955 503.55 388.574 503.55 388.574 555.917 365.33 555.917 365.33 503.536 312.949 503.536 312.949 480.292 365.33 480.292 365.33 427.911 388.574 427.911 388.574 480.292 440.955 480.292Z" fill="#FFFFFF"/></g></g></g></g></svg>