<svg width="402" height="403" xmlns="http://www.w3.org/2000/svg" xmlns:xlink="http://www.w3.org/1999/xlink" xml:space="preserve" overflow="hidden"><defs><clipPath id="clip0"><rect x="3713" y="779" width="402" height="403"/></clipPath><clipPath id="clip1"><rect x="3747" y="808" width="331" height="331"/></clipPath><clipPath id="clip2"><rect x="3747" y="808" width="331" height="331"/></clipPath><clipPath id="clip3"><rect x="3747" y="808" width="331" height="331"/></clipPath></defs><g clip-path="url(#clip0)" transform="translate(-3713 -779)"><path d="M3719.5 850.334C3719.5 814.527 3748.53 785.5 3784.33 785.5L4043.67 785.5C4079.47 785.5 4108.5 814.527 4108.5 850.334L4108.5 1110.67C4108.5 1146.47 4079.47 1175.5 4043.67 1175.5L3784.33 1175.5C3748.53 1175.5 3719.5 1146.47 3719.5 1110.67Z" stroke="#FFFFFF" stroke-width="12.6042" stroke-miterlimit="8" fill="#A6A6A6" fill-rule="evenodd"/><g clip-path="url(#clip1)"><g clip-path="url(#clip2)"><g clip-path="url(#clip3)"><path d="M3912.93 842.375C3840.83 842.375 3782.38 900.826 3782.38 972.928 3782.38 1045.03 3840.83 1103.48 3912.93 1103.48 3985.03 1103.48 4043.48 1045.03 4043.48 972.928 4043.48 972.925 4043.48 972.921 4043.48 972.918 4043.51 900.846 3985.1 842.4 3913.03 842.375 3912.99 842.375 3912.96 842.375 3912.93 842.375ZM3944.55 979.164C3925.53 998.15 3906.4 1017.31 3887.15 1036.63 3870.79 1020.19 3854.39 1003.8 3837.96 987.438L3854.39 971.003 3887.15 1003.76C3903.05 987.628 3918.86 971.61 3934.58 955.706 3950.3 939.804 3958.99 931.269 3975.29 915.518 3975.74 915.061 3976.24 914.607 3976.77 914.143 3977.29 913.705 3977.75 913.207 3978.14 912.658L3994.81 929.093C3975.45 948.343 3963.57 960.168 3944.55 979.153Z" fill="#FFFFFF"/></g></g></g></g></svg>