<svg width="403" height="403" xmlns="http://www.w3.org/2000/svg" xmlns:xlink="http://www.w3.org/1999/xlink" xml:space="preserve" overflow="hidden"><defs><clipPath id="clip0"><rect x="1998" y="1102" width="403" height="403"/></clipPath><clipPath id="clip1"><rect x="2033" y="1138" width="331" height="331"/></clipPath><clipPath id="clip2"><rect x="2033" y="1138" width="331" height="331"/></clipPath><clipPath id="clip3"><rect x="2033" y="1138" width="331" height="331"/></clipPath></defs><g clip-path="url(#clip0)" transform="translate(-1998 -1102)"><path d="M2004.5 1173.5C2004.5 1137.6 2033.6 1108.5 2069.5 1108.5L2329.5 1108.5C2365.4 1108.5 2394.5 1137.6 2394.5 1173.5L2394.5 1433.5C2394.5 1469.4 2365.4 1498.5 2329.5 1498.5L2069.5 1498.5C2033.6 1498.5 2004.5 1469.4 2004.5 1433.5Z" stroke="#FFFFFF" stroke-width="12.6042" stroke-miterlimit="8" fill="#A6A6A6" fill-rule="evenodd"/><g clip-path="url(#clip1)"><g clip-path="url(#clip2)"><g clip-path="url(#clip3)"><path d="M2320.69 1210.53 2291.47 1181.31 2199 1273.78 2106.53 1181.31 2077.31 1210.53 2169.78 1303 2077.31 1395.47 2106.53 1424.69 2199 1332.22 2291.47 1424.69 2320.69 1395.47 2228.22 1303Z" fill="#FFFFFF"/></g></g></g></g></svg>