<svg width="75" height="76" xmlns="http://www.w3.org/2000/svg" xmlns:xlink="http://www.w3.org/1999/xlink" xml:space="preserve" overflow="hidden"><defs><clipPath id="clip0"><rect x="700" y="222" width="75" height="76"/></clipPath></defs><g clip-path="url(#clip0)" transform="translate(-700 -222)"><path d="M34.5703 15.625 24.8047 15.625 41.2109 37.5 24.8047 59.375 34.5703 59.375 50.9766 37.5 34.5703 15.625Z" fill="#FFFFFF" transform="matrix(-1 1.22465e-16 -1.24098e-16 -1.01333 775 298)"/><path d="M6.05469 59.375 15.8203 59.375 32.2266 37.5 15.8203 15.625 6.05469 15.625 22.4609 37.5 6.05469 59.375Z" fill="#FFFFFF" transform="matrix(-1 1.22465e-16 -1.24098e-16 -1.01333 775 298)"/><path d="M53.3203 15.625 43.5547 15.625 59.9609 37.5 43.5547 59.375 53.3203 59.375 69.7266 37.5 53.3203 15.625Z" fill="#FFFFFF" transform="matrix(-1 1.22465e-16 -1.24098e-16 -1.01333 775 298)"/></g></svg>