<svg width="402" height="402" xmlns="http://www.w3.org/2000/svg" xmlns:xlink="http://www.w3.org/1999/xlink" xml:space="preserve" overflow="hidden"><defs><clipPath id="clip0"><rect x="1099" y="516" width="402" height="402"/></clipPath><clipPath id="clip1"><rect x="1134" y="551" width="331" height="331"/></clipPath><clipPath id="clip2"><rect x="1134" y="551" width="331" height="331"/></clipPath><clipPath id="clip3"><rect x="1134" y="551" width="331" height="331"/></clipPath></defs><g clip-path="url(#clip0)" transform="translate(-1099 -516)"><path d="M1105.5 587.335C1105.5 551.527 1134.53 522.5 1170.33 522.5L1429.67 522.5C1465.47 522.5 1494.5 551.527 1494.5 587.335L1494.5 846.666C1494.5 882.473 1465.47 911.5 1429.67 911.5L1170.33 911.5C1134.53 911.5 1105.5 882.473 1105.5 846.666Z" stroke="#FFFFFF" stroke-width="12.6042" stroke-miterlimit="8" fill="#A6A6A6" fill-rule="evenodd"/><g clip-path="url(#clip1)"><g clip-path="url(#clip2)"><g clip-path="url(#clip3)"><path d="M1213.06 717.719C1213.06 733.856 1199.98 746.938 1183.84 746.938 1167.71 746.938 1154.62 733.856 1154.62 717.719 1154.62 701.582 1167.71 688.5 1183.84 688.5 1199.98 688.5 1213.06 701.582 1213.06 717.719Z" fill="#FFFFFF"/><path d="M1326.5 717.719C1326.5 733.856 1313.42 746.938 1297.28 746.938 1281.14 746.938 1268.06 733.856 1268.06 717.719 1268.06 701.582 1281.14 688.5 1297.28 688.5 1313.42 688.5 1326.5 701.582 1326.5 717.719Z" fill="#FFFFFF"/><path d="M1439.94 717.719C1439.94 733.856 1426.86 746.938 1410.72 746.938 1394.58 746.938 1381.5 733.856 1381.5 717.719 1381.5 701.582 1394.58 688.5 1410.72 688.5 1426.86 688.5 1439.94 701.582 1439.94 717.719Z" fill="#FFFFFF"/></g></g></g></g></svg>