<svg width="403" height="402" xmlns="http://www.w3.org/2000/svg" xmlns:xlink="http://www.w3.org/1999/xlink" xml:space="preserve" overflow="hidden"><defs><clipPath id="clip0"><rect x="1968" y="321" width="403" height="402"/></clipPath><clipPath id="clip1"><rect x="2004" y="357" width="331" height="331"/></clipPath><clipPath id="clip2"><rect x="2004" y="357" width="331" height="331"/></clipPath><clipPath id="clip3"><rect x="2004" y="357" width="331" height="331"/></clipPath></defs><g clip-path="url(#clip0)" transform="translate(-1968 -321)"><path d="M1974.5 392.335C1974.5 356.528 2003.53 327.5 2039.33 327.5L2299.67 327.5C2335.47 327.5 2364.5 356.528 2364.5 392.335L2364.5 651.665C2364.5 687.472 2335.47 716.5 2299.67 716.5L2039.33 716.5C2003.53 716.5 1974.5 687.472 1974.5 651.665Z" stroke="#FFFFFF" stroke-width="12.6042" stroke-miterlimit="8" fill="#A6A6A6" fill-rule="evenodd"/><g clip-path="url(#clip1)"><g clip-path="url(#clip2)"><g clip-path="url(#clip3)"><path d="M2297.91 616.875 2254.94 573.906C2249.09 568.063 2241.19 566 2233.63 567.375L2218.5 552.25C2231.91 535.063 2239.81 513.063 2239.81 489.688 2239.81 432.969 2193.41 386.563 2136.69 386.563 2079.97 386.563 2033.56 432.969 2033.56 489.688 2033.56 546.406 2079.97 592.813 2136.69 592.813 2160.06 592.813 2181.72 584.906 2199.25 571.5L2214.38 586.625C2213 594.188 2215.06 602.094 2220.91 607.938L2263.88 650.906C2268.69 655.719 2274.88 658.125 2281.06 658.125 2287.25 658.125 2293.44 655.719 2298.25 650.906 2307.19 641.281 2307.19 626.156 2297.91 616.875ZM2136.34 571.844C2090.97 571.844 2053.84 534.719 2053.84 489.344 2053.84 443.969 2090.97 406.844 2136.34 406.844 2181.72 406.844 2218.84 443.969 2218.84 489.344 2218.84 534.719 2181.72 571.844 2136.34 571.844Z" fill="#FFFFFF"/></g></g></g></g></svg>