<svg width="403" height="403" xmlns="http://www.w3.org/2000/svg" xmlns:xlink="http://www.w3.org/1999/xlink" xml:space="preserve" overflow="hidden"><defs><clipPath id="clip0"><rect x="176" y="742" width="403" height="403"/></clipPath><clipPath id="clip1"><rect x="212" y="777" width="331" height="331"/></clipPath><clipPath id="clip2"><rect x="212" y="777" width="331" height="331"/></clipPath><clipPath id="clip3"><rect x="212" y="777" width="331" height="331"/></clipPath></defs><g clip-path="url(#clip0)" transform="translate(-176 -742)"><path d="M182.5 813.501C182.5 777.602 211.602 748.5 247.501 748.5L507.499 748.5C543.398 748.5 572.5 777.602 572.5 813.501L572.5 1073.5C572.5 1109.4 543.398 1138.5 507.499 1138.5L247.501 1138.5C211.602 1138.5 182.5 1109.4 182.5 1073.5Z" stroke="#FFFFFF" stroke-width="12.6042" stroke-miterlimit="8" fill="#A6A6A6" fill-rule="evenodd"/><g clip-path="url(#clip1)"><g clip-path="url(#clip2)"><g clip-path="url(#clip3)"><path d="M376.952 812.375C304.85 812.375 246.399 870.825 246.399 942.928 246.399 1015.03 304.85 1073.48 376.952 1073.48 449.054 1073.48 507.505 1015.03 507.505 942.928 507.505 942.924 507.505 942.921 507.505 942.917 507.53 870.845 449.124 812.4 377.052 812.375 377.018 812.375 376.985 812.375 376.952 812.375ZM437.517 954.55 316.387 954.55 316.387 931.312 437.517 931.312Z" fill="#FFFFFF"/></g></g></g></g></svg>