<svg width="26" height="26" viewBox="0 0 26 26" fill="none" xmlns="http://www.w3.org/2000/svg">
<path d="M24.6128 23.3769L19.9131 18.5237C21.4294 16.5229 22.2522 14.0522 22.2491 11.5086C22.2491 9.24344 21.6006 7.0291 20.3855 5.14564C19.1704 3.26219 17.4434 1.79422 15.4228 0.927362C13.4021 0.0605044 11.1787 -0.166305 9.03364 0.275615C6.88857 0.717535 4.91819 1.80834 3.37168 3.41008C1.82517 5.01183 0.771979 7.05257 0.345297 9.27426C-0.0813847 11.4959 0.137604 13.7988 0.97457 15.8916C1.81154 17.9843 3.22889 19.7731 5.04739 21.0315C6.8659 22.29 9.00388 22.9617 11.191 22.9617C13.6468 22.9649 16.0323 22.1128 17.9641 20.5423L22.65 25.4098C22.7785 25.544 22.9314 25.6505 23.0998 25.7232C23.2683 25.7959 23.4489 25.8333 23.6314 25.8333C23.8139 25.8333 23.9946 25.7959 24.163 25.7232C24.3314 25.6505 24.4843 25.544 24.6128 25.4098C24.7424 25.2768 24.8452 25.1184 24.9154 24.944C24.9856 24.7695 25.0217 24.5824 25.0217 24.3934C25.0217 24.2044 24.9856 24.0173 24.9154 23.8428C24.8452 23.6683 24.7424 23.51 24.6128 23.3769ZM2.89736 11.5086C2.89736 9.80974 3.38377 8.14898 4.29509 6.7364C5.2064 5.32381 6.50169 4.22283 8.01715 3.57268C9.53261 2.92254 11.2002 2.75243 12.809 3.08387C14.4178 3.41531 15.8956 4.23341 17.0555 5.43472C18.2153 6.63603 19.0052 8.16659 19.3252 9.83285C19.6453 11.4991 19.481 13.2262 18.8533 14.7958C18.2256 16.3654 17.1626 17.707 15.7987 18.6508C14.4348 19.5947 12.8313 20.0985 11.191 20.0985C8.99138 20.0985 6.88186 19.1935 5.3265 17.5826C3.77115 15.9717 2.89736 13.7868 2.89736 11.5086Z" fill="white"/>
</svg>
