<svg width="22" height="21" viewBox="0 0 22 21" fill="none" xmlns="http://www.w3.org/2000/svg">
<path d="M17.75 18C17.4185 18 17.1005 18.1317 16.8661 18.3661C16.6317 18.6005 16.5 18.9185 16.5 19.25C16.5 19.5815 16.6317 19.8995 16.8661 20.1339C17.1005 20.3683 17.4185 20.5 17.75 20.5H20.25C20.5815 20.5 20.8995 20.3683 21.1339 20.1339C21.3683 19.8995 21.5 19.5815 21.5 19.25L21.5 1.75C21.5 1.41848 21.3683 1.10054 21.1339 0.866116C20.8995 0.631695 20.5815 0.5 20.25 0.5H17.75C17.4185 0.5 17.1005 0.631695 16.8661 0.866116C16.6317 1.10054 16.5 1.41848 16.5 1.75C16.5 2.08152 16.6317 2.39946 16.8661 2.63388C17.1005 2.86831 17.4185 3 17.75 3H19L19 18H17.75Z" fill="white"/>
<path d="M0.47497 11.2251L3.99997 16.2251C4.19114 16.4945 4.48123 16.6774 4.80681 16.7336C5.1324 16.7898 5.467 16.7148 5.73747 16.5251C5.87266 16.4303 5.98775 16.3098 6.07609 16.1703C6.16443 16.0309 6.22427 15.8753 6.25216 15.7126C6.28006 15.5499 6.27544 15.3833 6.2386 15.2223C6.20175 15.0614 6.13339 14.9094 6.03747 14.7751L3.88747 11.7501H3.99997L14 11.7501C14.3315 11.7501 14.6494 11.6184 14.8839 11.3839C15.1183 11.1495 15.25 10.8316 15.25 10.5001C15.25 10.1685 15.1183 9.8506 14.8839 9.61618C14.6494 9.38176 14.3315 9.25006 14 9.25006L3.99997 9.25006L6.24997 6.25006C6.34846 6.11874 6.42012 5.96931 6.46086 5.81029C6.5016 5.65127 6.51062 5.48579 6.48741 5.32328C6.46419 5.16078 6.4092 5.00445 6.32556 4.8632C6.24193 4.72195 6.13129 4.59855 5.99997 4.50006C5.7836 4.33779 5.52043 4.25006 5.24997 4.25006C5.05591 4.25006 4.86452 4.29524 4.69095 4.38203C4.51738 4.46881 4.3664 4.59482 4.24997 4.75006L0.49997 9.75006C0.33988 9.96148 0.251176 10.2183 0.246681 10.4835C0.242188 10.7486 0.322136 11.0083 0.47497 11.2251Z" fill="white"/>
</svg>
