<svg width="27" height="25" viewBox="0 0 27 25" fill="none" xmlns="http://www.w3.org/2000/svg">
<path d="M26.3543 5.58704C26.1163 5.17309 25.7756 4.82813 25.3653 4.58581C24.9551 4.34348 24.4892 4.21206 24.0133 4.20437H6.3869L5.5882 1.07953C5.50751 0.777883 5.32747 0.512557 5.07742 0.326764C4.82737 0.140972 4.52203 0.0456604 4.21114 0.0563529H1.45702C1.0918 0.0563529 0.741537 0.202027 0.483288 0.461328C0.225039 0.720629 0.0799561 1.07232 0.0799561 1.43902C0.0799561 1.80573 0.225039 2.15742 0.483288 2.41672C0.741537 2.67602 1.0918 2.82169 1.45702 2.82169H3.16457L6.96526 17.0079C7.04596 17.3095 7.22599 17.5749 7.47605 17.7607C7.7261 17.9465 8.03144 18.0418 8.34232 18.0311H20.7359C20.9902 18.0303 21.2393 17.9588 21.4556 17.8246C21.6719 17.6904 21.847 17.4986 21.9615 17.2706L26.4782 8.20028C26.674 7.78827 26.7651 7.334 26.7435 6.87801C26.7219 6.42203 26.5882 5.97851 26.3543 5.58704ZM19.8821 15.2657H9.38889L7.14428 6.96971H24.0133L19.8821 15.2657Z" fill="white"/>
<path d="M7.65379 24.9444C8.79458 24.9444 9.71938 24.0158 9.71938 22.8704C9.71938 21.725 8.79458 20.7964 7.65379 20.7964C6.51299 20.7964 5.5882 21.725 5.5882 22.8704C5.5882 24.0158 6.51299 24.9444 7.65379 24.9444Z" fill="white"/>
<path d="M21.4244 24.9444C22.5652 24.9444 23.49 24.0158 23.49 22.8704C23.49 21.725 22.5652 20.7964 21.4244 20.7964C20.2836 20.7964 19.3588 21.725 19.3588 22.8704C19.3588 24.0158 20.2836 24.9444 21.4244 24.9444Z" fill="white"/>
</svg>
